<?xml version="1.0" standalone="no"?>
<!DOCTYPE svg PUBLIC "-//W3C//DTD SVG 20010904//EN"
 "http://www.w3.org/TR/2001/REC-SVG-20010904/DTD/svg10.dtd">
<svg version="1.0" xmlns="http://www.w3.org/2000/svg"
 width="257.000000pt" height="260.000000pt" viewBox="0 0 257.000000 260.000000"
 preserveAspectRatio="xMidYMid meet">

<g transform="translate(0.000000,260.000000) scale(0.100000,-0.100000)"
fill="#000000" stroke="none">
<path d="M752 2168 c-63 -34 -321 -294 -344 -346 -52 -116 -1 -259 115 -320
46 -24 63 -27 147 -27 89 0 100 2 174 38 215 102 329 347 247 531 -20 47 -87
111 -137 132 -53 22 -153 18 -202 -8z m148 -223 c0 -13 -265 -263 -269 -253
-4 13 239 258 256 258 7 0 13 -2 13 -5z"/>
<path d="M1610 2174 c-82 -35 -146 -131 -157 -234 -12 -120 48 -255 157 -353
95 -85 197 -122 315 -115 183 12 299 169 245 333 -18 57 -285 328 -355 361
-59 28 -150 32 -205 8z m214 -353 c70 -71 124 -131 119 -134 -5 -3 -70 55
-144 129 -73 73 -127 134 -119 134 9 0 73 -58 144 -129z"/>
<path d="M1214 1541 c-151 -39 -229 -217 -158 -359 118 -238 484 -156 484 108
0 100 -44 177 -129 223 -53 29 -143 42 -197 28z"/>
<path d="M535 1117 c-59 -29 -108 -78 -129 -129 -22 -53 -20 -153 4 -207 25
-54 285 -311 346 -341 29 -14 60 -20 110 -20 59 0 77 5 122 31 131 74 166 245
87 413 -40 84 -139 185 -228 232 -66 35 -79 38 -167 42 -84 3 -101 0 -145 -21z
m240 -316 c112 -111 144 -150 116 -139 -17 6 -261 248 -261 259 0 20 19 4 145
-120z"/>
<path d="M1783 1125 c-201 -62 -365 -314 -325 -497 17 -72 60 -140 113 -175
35 -23 55 -29 119 -31 106 -5 133 11 308 181 163 160 181 189 182 286 0 106
-53 186 -154 232 -49 22 -179 25 -243 4z m167 -200 c0 -3 -15 -20 -33 -38 -19
-18 -80 -77 -135 -131 -56 -55 -105 -97 -109 -93 -9 9 247 267 264 267 7 0 13
-2 13 -5z"/>
</g>
</svg>
